<svg width="18" height="18" viewBox="0 0 18 18" fill="none" xmlns="http://www.w3.org/2000/svg">
  <path d="M13.6222 3.36221V3.663C13.2254 3.73347 12.9251 3.85812 12.7212 4.03696C12.4292 4.30253 12.0848 4.709 11.8589 5.25638L7.26252 14.6378H6.9567L2.34238 5.13444C2.12748 4.64668 1.83532 4.3486 1.74716 4.2402C1.6094 4.0722 1.43996 3.94077 1.23883 3.84592C1.03771 3.75108 0.766326 3.69011 0.42469 3.663V3.36221H4.91455V3.663C4.39658 3.71179 4.14963 3.79851 3.99535 3.92315C3.84106 4.04781 3.76392 4.20769 3.76392 4.40278C3.76392 4.67378 3.89065 5.09651 4.14413 5.67098L7.55181 12.1339L10.8836 5.75227C11.1426 5.12361 11.3574 4.68733 11.3574 4.44343C11.3574 4.28627 11.2775 4.13588 11.1177 3.99225C10.9579 3.84864 10.7771 3.74702 10.3969 3.68739C10.3694 3.68198 10.3225 3.67385 10.2564 3.663V3.36221H13.6222Z" fill="black"/>
  <path d="M17.5753 3.36221V3.663C17.1786 3.73347 16.8782 3.85812 16.6744 4.03696C16.3823 4.30253 16.038 4.709 15.8121 5.25638L11.7782 14.6378H11.4723L7.20959 5.13444C6.99468 4.64668 6.70253 4.3486 6.61436 4.2402C6.47661 4.0722 6.30716 3.94077 6.10604 3.84592C5.90491 3.75108 5.72272 3.69011 5.38108 3.663V3.36221H9.78176V3.663C9.26378 3.71179 9.01684 3.79851 8.86256 3.92315C8.70827 4.04781 8.63112 4.20769 8.63113 4.40278C8.63112 4.67378 8.75786 5.09651 9.01134 5.67098L12.0675 12.1339L14.8367 5.75227C15.0957 5.12361 15.3106 4.68733 15.3106 4.44343C15.3106 4.28627 15.2307 4.13588 15.0709 3.99225C14.9111 3.84864 14.6411 3.74702 14.2609 3.68739C14.2333 3.68198 14.1865 3.67385 14.1204 3.663V3.36221H17.5753Z" fill="black"/>
</svg>
